<svg width="510" height="85" viewBox="0 0 510 85" fill="none" xmlns="http://www.w3.org/2000/svg">
<path d="M5.5 45.5886C4.04131 45.5749 2.64236 46.1423 1.61091 47.174C0.579463 48.2052 1.01992e-07 49.6162 1.01992e-07 51.0886C1.01992e-07 52.5611 0.579463 53.9721 1.61091 55.0033C2.64236 56.035 4.04131 56.6024 5.5 56.5886C5.5 56.5886 5.5 56.5886 5.5 56.5886C15.2793 56.5602 25.1712 56.5211 35.0298 56.4744C69.858 56.3086 104.515 56.0589 139.342 55.7484C199.898 55.1111 258.025 35.1485 311.42 9.58703C315.979 7.53641 320.658 5.28127 324.884 4.96473C332.046 4.49113 339.132 6.35945 342.76 12.0955C346.459 17.7548 347.109 25.395 347.078 32.7063C347.561 47.6612 341.37 62.0263 346.045 78.4864C349.407 82.6052 353.416 82.9306 357.167 84.0603C361.79 85.1804 366.617 85.1554 371.208 84.2103C383.842 82.3418 395.183 74.54 406.206 70.7142C416.241 69.1208 426.932 70.7983 437.361 68.7331C454.367 65.9943 468.213 55.2829 484.054 49.8985C484.065 49.8948 484.075 49.8911 484.086 49.8874L484.122 49.8722C490.865 46.4618 497.226 42.2894 504.28 39.6079L504.258 39.6112C506.661 39.6778 508.015 42.0316 509.5 43.6806C509.5 43.6806 509.5 43.6806 509.5 43.6806C508.041 42.0092 506.76 39.6139 504.261 39.483L504.239 39.4863C497.102 42.0499 490.663 46.1064 483.873 49.3823L483.91 49.367C483.899 49.3705 483.888 49.3741 483.878 49.3776C467.803 54.5304 453.802 64.923 437.093 67.2708C426.913 69.1066 416.506 67.2208 405.859 68.6753C393.256 72.8204 383.262 79.8198 370.675 81.4937C366.431 82.2863 362.028 82.214 357.905 81.132C354.462 80.2054 350.246 78.8859 348.82 76.8289C345.396 64.0208 351.157 47.8899 351.152 32.78C351.276 25.1445 350.998 16.9215 346.529 9.64424C341.998 2.08257 332.504 -0.407826 324.663 0.0529322C318.675 0.469275 314.015 2.8796 309.299 4.83892C255.624 29.3394 198.064 47.7246 139.345 47.2371C104.529 46.9014 69.8845 46.5049 35.0775 46.0245C25.201 45.8878 15.4203 45.744 5.5 45.5886Z" fill="#FFE500"/>
</svg>
